<?xml version="1.0" standalone="no"?>
<!DOCTYPE svg PUBLIC "-//W3C//DTD SVG 20010904//EN"
 "http://www.w3.org/TR/2001/REC-SVG-20010904/DTD/svg10.dtd">
<svg version="1.0" xmlns="http://www.w3.org/2000/svg"
 width="320.000000pt" height="320.000000pt" viewBox="0 0 320.000000 320.000000"
 preserveAspectRatio="xMidYMid meet">
<metadata>
Created by potrace 1.11, written by Peter Selinger 2001-2013
</metadata>
<g transform="translate(0.000000,320.000000) scale(0.100000,-0.100000)"
fill="#000000" stroke="none">
<path d="M1782 3033 c-18 -9 -45 -32 -60 -51 l-27 -35 -3 -329 c-3 -326 -3
-329 20 -369 13 -24 41 -51 66 -66 36 -21 52 -25 100 -21 50 4 74 15 207 95
83 49 201 118 263 153 68 38 121 75 135 94 28 39 36 140 14 182 -22 42 -39 55
-172 129 -66 37 -184 105 -261 151 -131 78 -145 84 -195 84 -30 0 -69 -8 -87
-17z"/>
<path d="M1096 3005 c-22 -7 -50 -24 -62 -37 -24 -24 -258 -425 -300 -513 -30
-63 -30 -118 -1 -170 41 -72 119 -106 196 -85 54 14 94 50 132 118 l31 57 63
0 64 0 22 -40 c58 -106 101 -138 186 -138 96 0 172 78 173 176 0 44 -17 78
-184 367 -98 170 -132 221 -162 242 -49 33 -107 42 -158 23z"/>
<path d="M840 1988 c-52 -15 -86 -43 -109 -91 -36 -75 -22 -150 41 -207 35
-32 69 -42 152 -44 l51 -1 3 -92 3 -93 -46 0 c-74 0 -134 -20 -170 -56 -65
-65 -71 -164 -13 -230 58 -66 57 -66 404 -66 l315 0 43 26 c77 45 107 145 67
224 -36 71 -94 101 -194 102 l-58 0 3 93 3 92 75 5 c81 6 101 13 142 57 74 78
59 199 -33 260 -40 27 -49 28 -173 31 l-131 4 35 -24 c96 -65 115 -183 43
-269 -31 -37 -95 -69 -138 -69 -43 0 -107 32 -138 69 -72 86 -54 204 42 268
l34 23 -109 -1 c-60 0 -125 -5 -144 -11z"/>
<path d="M1800 1989 c-32 -13 -78 -56 -96 -91 -11 -21 -14 -84 -14 -300 l0
-273 21 43 c32 63 92 96 168 90 103 -7 165 -74 165 -178 1 -65 -26 -117 -77
-149 l-32 -21 258 0 c220 0 264 2 294 16 93 45 124 178 62 265 -27 38 -88 69
-135 69 -31 0 -35 3 -28 18 9 19 12 115 4 147 -4 17 2 20 43 26 27 4 63 19 81
33 99 75 84 241 -27 295 -41 20 -58 21 -353 20 -180 0 -319 -4 -334 -10z"/>
<path d="M814 961 c-23 -10 -54 -36 -70 -57 l-29 -37 -3 -323 c-3 -303 -2
-326 17 -361 49 -96 75 -103 393 -103 145 0 283 5 308 11 56 13 108 48 140 96
22 32 25 48 25 118 0 72 -3 86 -27 123 -41 61 -101 92 -195 99 l-77 6 42 13
c172 50 211 285 66 387 -59 41 -96 47 -334 47 -189 0 -220 -3 -256 -19z m670
-509 c58 -40 78 -84 74 -158 -6 -106 -72 -168 -179 -168 -72 -1 -127 33 -158
96 -38 79 -23 155 40 215 63 59 152 65 223 15z"/>
</g>
</svg>
